<svg width="750" height="750" viewBox="0 0 750 750" fill="none" xmlns="http://www.w3.org/2000/svg">
<rect width="750" height="750" fill="white"/>
<path fill-rule="evenodd" clip-rule="evenodd" d="M140.262 548.938C185.532 598.215 360.593 569.909 475.863 569.909C525.591 569.909 692.471 594.832 623.559 423.668C397.609 -137.553 -3.17657 392.8 140.262 548.938Z" fill="#FF9100"/>
<path fill-rule="evenodd" clip-rule="evenodd" d="M340.561 552.902C340.781 552.733 341.012 552.55 341.108 552.289C341.415 551.455 340.21 550.9 339.321 550.92C338.03 550.949 336.376 551.818 336.771 553.047C336.999 553.758 337.875 554.088 338.61 553.957C339.346 553.826 339.969 553.357 340.561 552.902H340.561ZM344.398 538.269C345.372 538.574 346.334 538.952 347.183 539.52C348.776 540.587 349.86 542.244 350.901 543.854C351.646 545.009 352.403 546.186 352.775 547.51C353.178 548.943 353.106 550.473 352.836 551.937C351.995 556.499 349.18 560.661 345.26 563.139C341.34 565.618 336.373 566.376 331.892 565.181C331.019 564.948 330.141 564.631 329.47 564.027C328.906 563.519 328.526 562.843 328.178 562.169C326.353 558.63 325.122 554.698 325.263 550.719C325.404 546.739 327.04 542.712 330.138 540.211C334.026 537.072 339.63 536.772 344.398 538.269" fill="white"/>
<path fill-rule="evenodd" clip-rule="evenodd" d="M550.197 321.779C548.06 321.752 546.056 323.544 545.845 325.67C545.758 326.539 546.127 327.619 546.992 327.739C547.64 327.829 548.209 327.328 548.644 326.84C549.566 325.807 550.357 324.658 550.994 323.429C551.208 323.017 551.397 322.488 551.116 322.118C550.911 321.848 550.535 321.783 550.197 321.779ZM549.272 312.245C552.306 313.303 555.056 315.165 557.165 317.589C558.978 319.673 560.359 322.377 559.978 325.113C559.838 326.117 559.468 327.074 559.045 327.996C557.445 331.487 554.692 334.832 550.912 335.508C548.929 335.862 546.885 335.437 544.978 334.789C542.773 334.038 540.67 332.986 538.747 331.67C537.727 330.972 536.715 330.144 536.268 328.991C535.959 328.198 535.95 327.323 535.962 326.471C535.99 324.365 536.13 322.223 536.864 320.249C537.793 317.751 539.611 315.689 541.539 313.849C542.314 313.109 543.136 312.38 544.132 311.983C545.761 311.334 547.616 311.667 549.272 312.245" fill="white"/>
<path fill-rule="evenodd" clip-rule="evenodd" d="M550.2 160.288C562.754 173.234 572.662 188.715 579.149 205.516C579.594 206.67 580.026 207.952 579.601 209.113C576.329 218.057 570.014 225.513 563.822 232.763C559.865 237.395 555.909 242.028 551.952 246.661C548.175 251.083 544.397 255.507 540.492 259.818C520.611 281.769 497.119 300.964 469.911 312.774C468.884 313.22 467.783 313.664 466.677 313.486C465.571 313.308 464.535 312.239 464.824 311.161C468.188 298.634 471.574 285.538 468.874 272.852C468.223 269.792 467.497 265.94 470.036 264.099C490.584 249.192 505.379 227.885 519.557 206.867C523.122 201.582 526.678 196.283 529.833 190.745C535.434 180.913 539.748 170.354 542.631 159.42C543.027 157.919 544.928 157.243 546.435 157.637C547.941 158.03 549.118 159.172 550.2 160.288" fill="white"/>
<path fill-rule="evenodd" clip-rule="evenodd" d="M158.694 210.583C160.735 229.035 166.416 247.077 175.314 263.369C180.824 273.457 187.525 282.837 194.209 292.188C198.86 298.695 203.833 305.476 211.09 308.839C213.02 309.733 212.75 312.515 212.233 314.578C209.994 323.493 208.95 332.708 209.136 341.898C209.154 342.767 209.176 343.667 208.835 344.465C207.677 347.177 203.709 346.725 200.978 345.616C184.076 338.755 171.1 324.957 158.979 311.327C143.241 293.629 127.737 275.155 118.44 253.373C117.808 251.892 117.194 250.334 117.3 248.727C117.408 247.09 118.249 245.602 119.102 244.201C127.53 230.358 139.255 218.537 153.029 209.997C154 209.395 155.035 208.793 156.176 208.753C157.317 208.714 158.568 209.449 158.694 210.583" fill="white"/>
<path fill-rule="evenodd" clip-rule="evenodd" d="M547.736 534.275C549.193 531.807 550.998 529.089 553.825 528.621C554.94 528.436 555.528 527.225 555.907 526.161C560.581 513.051 561.031 498.473 557.176 485.1C556.075 481.283 557.43 477.236 558.771 473.497C562.23 463.846 565.69 454.196 569.149 444.545C567.167 441.116 561.941 441.218 559.264 438.3C555.818 434.545 558.417 428.575 561.116 424.253C576.885 399 592.653 373.747 608.422 348.494C610.353 345.4 614.593 344.431 618.146 345.255C621.699 346.079 624.733 348.316 627.656 350.498C639.156 359.088 650.656 367.678 662.157 376.268C668.329 380.878 675.143 386.767 674.787 394.463C674.591 398.721 672.154 402.506 669.797 406.059C660.682 419.792 651.568 433.526 642.454 447.26C637.319 454.998 638.737 465.159 637.185 474.315C634.733 488.781 624.813 500.662 615.627 512.103C606.442 523.544 597.25 536.319 596.734 550.983C596.118 568.459 587.816 585.528 574.446 596.801C578.324 587.394 553.825 591.146 525.801 579.996C530.412 563.682 539.119 548.875 547.736 534.275Z" fill="white"/>
<path fill-rule="evenodd" clip-rule="evenodd" d="M240.01 575.189C238.263 573.76 237.706 571.347 237.397 569.104C233.828 543.155 249.156 517.542 246.425 491.49C245.018 478.064 238.85 465.537 231.087 454.519C225.726 446.911 225.426 436.718 227.426 427.615C229.426 418.512 233.46 410 236.181 401.087C248.282 361.453 233.558 319.113 219 280.322C248.008 266.295 281.859 269.012 313.995 270.912C346.131 272.813 380.693 272.947 407.478 255C411.149 293.825 403.054 332.693 395.005 370.845C435.846 366.866 476.688 362.887 517.529 358.908C518.7 358.794 519.981 358.706 520.954 359.371C522.252 360.258 522.452 362.067 522.526 363.643C524.435 404.02 525.593 444.432 525.998 484.853C526.008 485.866 525.973 486.997 525.262 487.716C524.653 488.331 523.724 488.46 522.865 488.556C465.645 494.932 408.425 501.309 351.205 507.685C346.257 508.237 339.209 506.948 339.498 501.953C340.79 479.682 340.036 457.291 337.248 435.158C322.042 434.583 306.732 436.902 292.369 441.956C289.111 443.102 285.193 446.185 286.95 449.171C298.577 468.929 284.146 498.627 299.937 515.212C305.366 520.915 304.991 529.886 303.915 537.704C301.609 554.462 297.69 570.996 292.232 587C294.871 568.579 241.623 585.068 240.01 575.189Z" fill="white"/>
<path fill-rule="evenodd" clip-rule="evenodd" d="M76.3457 157.027C76.3946 157.42 76.1818 157.833 75.8331 158.022C75.5554 157.744 75.2777 157.466 75 157.188C75.4163 157.006 75.8884 156.954 76.3344 157.041L76.3457 157.027Z" fill="#00160A"/>
<path fill-rule="evenodd" clip-rule="evenodd" d="M343.398 538.269C344.372 538.574 345.334 538.952 346.183 539.52C347.776 540.587 348.86 542.244 349.901 543.854C350.646 545.009 351.403 546.186 351.775 547.51C352.178 548.943 352.106 550.473 351.836 551.937C350.995 556.499 348.18 560.661 344.26 563.139C340.34 565.618 335.373 566.376 330.892 565.181C330.019 564.948 329.141 564.631 328.47 564.027C327.906 563.519 327.526 562.843 327.178 562.169C325.353 558.63 324.122 554.698 324.263 550.719C324.404 546.739 326.04 542.712 329.138 540.211C333.026 537.072 338.63 536.772 343.398 538.269M337.933 561.962C340.371 561.592 342.516 560 343.917 557.971C345.318 555.942 346.036 553.509 346.382 551.068C346.579 549.674 346.597 548.077 345.613 547.07C345.023 546.467 344.182 546.198 343.375 545.957C340.344 545.05 336.885 544.279 334.17 545.903C332.194 547.086 331.092 549.278 330.093 551.353C328.923 553.784 329.212 556.852 330.815 559.021C332.418 561.19 335.266 562.367 337.933 561.962V561.962Z" fill="#00160A"/>
<path fill-rule="evenodd" clip-rule="evenodd" d="M454.739 428.788C454.781 428.271 454.844 427.716 455.186 427.326C455.521 426.945 456.047 426.808 456.541 426.693C469.275 423.728 482.428 422.568 495.484 423.258C497.147 423.346 499.286 423.909 499.396 425.57C500.026 435.096 500.657 444.622 501.288 454.148C501.32 454.63 501.336 455.164 501.027 455.536C500.776 455.839 500.37 455.956 499.989 456.056C486.41 459.596 472.096 460.294 458.236 458.091C457.879 458.035 457.504 457.968 457.227 457.736C456.892 457.455 456.774 456.999 456.679 456.573C454.635 447.48 453.979 438.076 454.739 428.788ZM457.742 444.59C457.992 448.187 458.746 451.749 459.976 455.139C461.203 455.315 462.417 455.57 463.639 455.777C474.172 457.56 484.944 455.766 495.475 453.974C496.222 453.847 497.042 453.678 497.503 453.077C497.974 452.462 497.912 451.606 497.827 450.837C497.464 447.554 497.101 444.272 496.738 440.99C496.709 440.725 496.672 440.441 496.492 440.244C496.275 440.005 495.919 439.966 495.597 439.945C488.113 439.452 480.605 440.011 473.126 440.569C468.992 440.877 464.858 441.186 460.724 441.494C459.752 441.567 458.648 441.711 458.09 442.509C457.678 443.097 457.692 443.874 457.742 444.59ZM457.858 430.861C457.204 432.959 457.087 435.222 457.52 437.376C457.598 437.763 457.707 438.172 458.001 438.435C458.437 438.826 459.101 438.762 459.68 438.677C466.723 437.645 473.843 437.133 480.961 437.145C481.965 437.146 482.273 435.795 482.262 434.79C482.246 433.319 482.23 431.848 482.214 430.377C482.204 429.525 482.162 428.587 481.579 427.967C480.879 427.221 479.708 427.244 478.688 427.322C476.33 427.502 473.972 427.682 471.614 427.863C470.485 427.949 467.493 428.715 466.118 428.806C463.724 429.188 461.33 429.57 458.936 429.952C458.68 429.992 458.411 430.039 458.214 430.207C458.023 430.37 457.933 430.621 457.858 430.861ZM489.435 437.261C491.306 437.285 493.18 437.098 495.01 436.704C495.446 436.611 495.903 436.491 496.214 436.172C496.67 435.703 496.666 434.968 496.633 434.315C496.536 432.418 496.439 430.521 496.342 428.624C496.308 427.947 496.232 427.185 495.703 426.761C495.238 426.389 494.581 426.411 493.986 426.452C491.905 426.593 489.824 426.735 487.743 426.876C487.413 426.899 487.067 426.927 486.792 427.109C486.288 427.442 486.212 428.14 486.198 428.744C486.152 430.754 486.234 432.768 486.444 434.768C486.505 435.347 486.589 435.957 486.947 436.416C487.505 437.131 488.528 437.25 489.435 437.261Z" fill="#FFB61D"/>
<path fill-rule="evenodd" clip-rule="evenodd" d="M487.329 387.159C490.111 385.956 493.524 386.359 495.949 388.178C498.373 389.997 499.715 393.161 499.338 396.169C501.042 395.247 503.204 394.34 504.795 395.446C506.591 396.696 506.181 399.387 505.911 401.558C505.439 405.352 506.051 409.274 507.654 412.744C508.317 414.178 508.886 416.352 507.416 416.931C507.168 417.028 506.898 417.051 506.632 417.072C489.403 418.461 472.173 419.849 454.943 421.238C454.47 421.276 453.941 421.297 453.584 420.985C453.219 420.667 453.173 420.127 453.154 419.644C452.989 415.591 452.823 411.538 452.658 407.485C452.614 406.398 452.593 405.226 453.207 404.328C454.223 402.841 456.351 402.846 458.129 402.561C459.907 402.276 461.976 400.776 461.291 399.111C460.528 397.254 463.129 395.897 465.113 395.595C467.098 395.293 469.73 394.11 469.129 392.195C468.472 390.103 471.351 388.804 473.525 388.516C475.059 388.312 476.663 388.115 478.118 388.641C479.573 389.167 480.802 390.665 480.475 392.177C480.099 393.909 482.208 395.522 483.871 394.91C485.533 394.299 486.207 392.027 485.365 390.468C484.678 389.195 486.001 387.734 487.329 387.159ZM496.226 413.866C495.582 412.671 495.577 411.249 495.571 409.891C495.544 403.517 495.152 397.144 494.399 390.815C494.361 390.495 494.301 390.138 494.039 389.951C493.814 389.79 493.51 389.809 493.234 389.835C491.888 389.96 490.293 390.258 489.761 391.501C489.534 392.031 489.561 392.63 489.592 393.206C489.933 399.595 490.275 405.983 490.616 412.372C490.648 412.967 490.727 413.65 491.221 413.983C491.491 414.164 491.83 414.198 492.154 414.215C493.519 414.29 494.894 414.172 496.226 413.866ZM473.052 404.043C472.885 405.108 472.65 406.164 472.588 407.24C472.483 409.037 472.862 410.824 473.239 412.585C473.48 413.714 474.939 414.269 476.008 413.834C477.078 413.399 477.724 412.258 477.901 411.117C478.079 409.977 477.871 408.816 477.689 407.676C476.975 403.197 476.666 398.654 476.766 394.119C476.792 392.972 475.673 391.936 474.531 392.049C473.389 392.162 472.495 393.398 472.746 394.518C473.443 397.637 473.547 400.887 473.052 404.043ZM484.384 397.925C483.712 397.045 482.172 397.514 481.648 398.489C481.124 399.464 481.284 400.646 481.414 401.746C481.754 404.616 481.786 407.524 481.511 410.401C481.43 411.25 481.339 412.176 481.808 412.888C482.528 413.983 484.109 413.973 485.413 413.841C485.822 413.799 486.292 413.72 486.498 413.364C486.641 413.116 486.607 412.809 486.569 412.525C485.968 408.06 485.366 403.596 484.765 399.131C484.708 398.708 484.643 398.264 484.384 397.925ZM499.308 399.844C498.802 400.534 498.695 401.432 498.651 402.287C498.501 405.218 498.889 408.146 499.276 411.055C499.429 412.201 499.953 413.674 501.107 413.596C502.276 413.517 502.581 411.953 502.554 410.782C502.482 407.679 502.41 404.576 502.338 401.474C502.319 400.658 502.233 399.713 501.556 399.257C500.846 398.78 499.814 399.154 499.308 399.844ZM463.992 399.111C463.992 399.111 464.505 403.16 464.684 405.223C464.909 407.813 465.195 410.398 465.543 412.974C465.593 413.349 465.661 413.754 465.937 414.011C466.416 414.458 468.262 414.161 468.602 413.602C468.942 413.043 468.923 412.345 468.893 411.691C468.799 409.623 468.706 407.555 468.612 405.486C468.512 403.269 467.984 398.489 467.984 398.489M457.295 413.773C457.443 414.236 457.617 414.722 457.992 415.032C458.724 415.638 459.911 415.263 460.488 414.508C461.065 413.754 461.195 412.76 461.305 411.816C461.44 410.658 461.571 409.455 461.196 408.351C460.821 407.248 459.784 406.277 458.623 406.379C457.555 406.473 456.728 407.449 456.478 408.492C456.229 409.535 456.439 410.628 456.698 411.669C456.875 412.376 457.074 413.078 457.295 413.773Z" fill="#E7EAEE"/>
<path fill-rule="evenodd" clip-rule="evenodd" d="M527.141 247.961C525.749 250.05 524.241 252.165 522.089 253.454C519.936 254.743 516.965 254.994 515.031 253.396C512.897 251.633 512.765 248.454 512.934 245.691C512.999 244.627 513.084 243.555 513.389 242.533C513.917 240.762 515.072 239.251 516.277 237.849C517.739 236.149 519.358 234.509 521.386 233.552C523.414 232.595 525.934 232.427 527.835 233.617C530.109 235.042 530.951 238.074 530.52 240.723C530.089 243.372 528.629 245.728 527.141 247.961M522.723 250.171C524.477 248.302 525.981 246.2 527.184 243.937C527.975 242.447 528.648 240.828 528.616 239.142C528.585 237.456 527.696 235.694 526.129 235.068C524.09 234.253 521.85 235.557 520.146 236.942C518.932 237.928 517.757 239.01 516.979 240.366C516.486 241.223 516.166 242.167 515.85 243.104C515.25 244.876 514.642 246.722 514.87 248.579C515.099 250.435 516.427 252.299 518.288 252.492C520.01 252.67 521.538 251.433 522.723 250.171Z" fill="#FFB61D"/>
<path fill-rule="evenodd" clip-rule="evenodd" d="M168.799 271.562C170.978 273.77 172.777 276.352 174.093 279.16C175.416 281.983 174.082 285.612 171.487 287.339C168.892 289.066 165.383 289.043 162.537 287.77C159.691 286.497 157.455 284.122 155.808 281.475C154.566 279.48 153.603 277.243 153.5 274.895C153.396 272.547 154.261 270.076 156.118 268.636C157.997 267.18 160.639 266.972 162.911 267.671C165.183 268.37 167.129 269.871 168.799 271.562M160.296 270.22C158.411 270.026 156.736 271.756 156.412 273.624C156.089 275.492 156.801 277.387 157.722 279.044C159.72 282.636 163.285 285.827 167.39 285.628C169.501 285.526 171.814 284.064 171.777 281.951C171.761 281.038 171.31 280.195 170.86 279.4C169.664 277.287 168.372 275.197 166.647 273.489C164.922 271.781 162.711 270.469 160.296 270.22Z" fill="#FFB61D"/>
<path fill-rule="evenodd" clip-rule="evenodd" d="M333.573 549.453C335.087 548.303 336.969 547.559 338.867 547.681C340.764 547.803 342.641 548.892 343.435 550.619C344.287 552.473 343.756 554.777 342.427 556.325C341.098 557.873 339.096 558.728 337.075 559.011C335.696 559.203 334.052 559.03 333.297 557.86C332.933 557.296 332.85 556.6 332.777 555.932C332.646 554.734 332.514 553.535 332.383 552.336C332.327 551.828 332.273 551.301 332.436 550.816C332.629 550.247 333.095 549.817 333.573 549.453M339.561 552.902C339.781 552.733 340.012 552.55 340.108 552.289C340.415 551.455 339.21 550.9 338.321 550.92C337.03 550.949 335.376 551.818 335.771 553.047C335.999 553.758 336.875 554.088 337.61 553.957C338.346 553.826 338.969 553.357 339.561 552.902H339.561Z" fill="#00160A"/>
<path d="M610.71 352.714C612.575 349.727 616.669 348.79 620.1 349.586C623.53 350.382 626.46 352.541 629.281 354.649L662.593 379.53C668.552 383.981 675.131 389.668 674.788 397.098C674.598 401.209 672.246 404.864 669.97 408.293C661.17 421.554 652.369 434.814 643.569 448.075C638.612 455.545 639.981 465.357 638.482 474.197C636.115 488.164 626.537 499.635 617.668 510.682C608.799 521.729 599.924 534.063 599.426 548.221C598.832 565.095 590.815 581.576 577.906 592.46C581.651 583.377 585.395 574.294 589.14 565.21C591.811 558.73 594.284 550.667 589.814 545.268C587.791 542.825 584.734 541.533 581.8 540.329C575.985 537.944 570.169 535.557 564.354 533.171C563.151 532.678 561.91 532.176 560.61 532.168C556.558 532.144 554.147 536.54 552.504 540.245C546.819 553.061 539.558 565.178 530.938 576.235C535.39 560.483 543.797 546.186 552.117 532.089C553.524 529.706 555.267 527.082 557.996 526.63C559.072 526.452 559.64 525.283 560.006 524.255C564.518 511.598 564.954 497.522 561.231 484.611C560.169 480.925 561.477 477.017 562.772 473.407C566.112 464.089 569.452 454.771 572.792 445.454C570.878 442.143 565.832 442.241 563.247 439.424C559.921 435.799 562.43 430.034 565.036 425.861C580.261 401.479 595.485 377.096 610.71 352.714ZM404.481 257.211C408.104 295.327 400.117 333.484 392.176 370.939C432.471 367.033 472.766 363.127 513.061 359.221C514.216 359.109 515.479 359.022 516.44 359.675C517.72 360.546 517.917 362.322 517.99 363.87C519.874 403.508 521.017 443.182 521.416 482.864C521.426 483.859 521.391 484.968 520.69 485.674C520.089 486.278 519.172 486.406 518.325 486.499L348.962 505.28C344.08 505.821 337.125 504.555 337.411 499.652C338.686 477.787 337.942 455.806 335.191 434.078C320.188 433.513 305.083 435.789 290.913 440.75C287.698 441.876 283.833 444.903 285.566 447.834C297.037 467.231 282.801 496.387 298.38 512.668C303.737 518.267 303.366 527.074 302.305 534.749C300.029 551.201 296.163 567.433 290.778 583.145L298.588 528.893C299.091 525.397 299.535 521.578 297.714 518.551C296.032 515.755 292.813 514.321 289.737 513.233C280.014 509.791 269.668 508.117 259.356 508.315C256.208 508.375 252.843 508.691 250.392 510.666C247.317 513.144 246.575 517.451 246.046 521.364L239.255 571.55C237.531 570.147 236.981 567.778 236.677 565.576C233.156 540.1 248.278 514.955 245.584 489.379C244.196 476.199 238.109 463.901 230.45 453.085C225.161 445.616 224.865 435.609 226.838 426.672C228.811 417.735 232.792 409.379 235.477 400.629C247.415 361.72 232.888 320.153 218.525 282.072C247.146 268.3 280.544 270.967 312.25 272.832C343.956 274.698 378.056 274.83 404.481 257.211ZM614.98 427.003C612.62 430.027 611.618 433.863 610.674 437.58C608.805 444.936 606.936 452.293 605.067 459.649C602.533 469.625 599.295 480.592 590.508 485.951C589.808 486.378 588.996 486.773 588.198 486.584C587.207 486.349 586.645 485.325 586.231 484.394C580.623 471.761 579.923 457.023 584.308 443.915C584.573 443.12 583.764 442.289 582.928 442.223C582.092 442.157 581.308 442.613 580.623 443.096C573.428 448.173 570.673 457.37 568.384 465.873C567.369 469.642 566.354 473.411 565.34 477.18C564.895 478.832 564.448 480.499 564.356 482.206C564.182 485.403 565.25 488.516 566.024 491.622C568.951 503.369 567.629 516.127 562.356 527.024C561.578 528.63 563.631 530.093 565.305 530.712C572.97 533.551 580.636 536.389 588.302 539.227C591.293 540.334 595.503 541.007 596.921 538.15C603.781 524.321 610.83 510.225 621.75 499.314C628.044 493.025 631.902 484.633 634.085 476.007C636.268 467.382 636.886 458.448 637.495 449.572C634.845 450.536 634.615 454.112 634.626 456.932C634.651 463.149 633.564 469.369 631.433 475.208C630.987 476.431 630.387 477.751 629.192 478.267C627.998 478.783 626.238 477.747 626.64 476.509C629.721 467.01 630.869 456.888 629.994 446.94C629.723 443.856 629.149 440.556 626.956 438.371C627.194 443.241 627.432 448.133 626.939 452.984C626.085 461.377 623.075 469.379 620.093 477.27C619.706 478.295 619.237 479.412 618.253 479.893C617.269 480.374 615.742 479.611 615.999 478.546C617.488 472.392 618.977 466.237 620.466 460.082C622.922 449.93 625.337 439.009 621.535 429.281C619.62 429.153 619.17 431.891 619.341 433.802C620.512 446.894 616.892 459.889 613.309 472.536C612.89 474.012 611.409 475.859 610.259 474.843C609.763 474.405 609.74 473.65 609.78 472.99C610.077 468.116 611.736 463.447 612.969 458.723C615.661 448.409 616.348 437.575 614.98 427.003ZM242.457 395.383C239.402 399.115 238.036 403.911 236.746 408.559C234.703 415.917 232.661 423.276 230.618 430.634C229.925 433.133 229.225 435.678 229.309 438.27C229.434 442.15 231.289 445.737 233.103 449.169C237.198 456.921 241.293 464.673 245.388 472.424C249.85 480.872 249.51 490.912 249.926 500.456C249.973 501.541 250.045 502.672 250.589 503.611C251.133 504.55 252.303 505.22 253.319 504.838C258.576 502.863 264.422 503.792 269.956 504.746C275.526 505.707 281.096 506.668 286.666 507.628C288.105 507.876 289.366 506.415 289.523 504.963C289.681 503.512 289.089 502.099 288.619 500.716C284.477 488.516 289.477 474.991 287.235 462.303C285.111 450.279 276.808 440.416 268.815 431.185C266.588 428.614 267.282 424.742 267.793 421.379C268.607 416.02 268.61 410.538 267.804 405.177C267.498 403.145 266.975 400.958 265.368 399.678C263.268 398.006 259.999 398.617 257.995 400.404C255.991 402.19 255.001 404.839 254.315 407.435C251.809 416.908 252.371 427.072 249.148 436.326C248.704 437.603 248.063 438.984 246.802 439.471C245.54 439.958 243.77 438.7 244.35 437.478C250.612 424.269 249.88 407.977 242.457 395.383ZM514.902 362.024C496.083 365.656 476.932 367.568 457.767 367.726C453.31 367.763 448.873 368.297 444.448 368.829C427.671 370.85 410.894 372.871 394.116 374.892C393.441 374.973 392.726 375.07 392.197 375.497C391.656 375.935 391.413 376.637 391.227 377.307C390.222 380.918 390.128 384.78 390.957 388.436C408.825 382.915 430.017 391.7 438.737 408.244C446.869 423.67 446.092 443.596 436.176 457.94C426.259 472.284 407.411 480.075 390.404 476.222C373.397 472.37 359.564 456.728 358.507 439.322C358.396 437.497 356.192 436.697 354.398 436.339C350.003 435.463 345.607 434.587 341.211 433.71C340.682 433.605 340.098 433.507 339.631 433.778C338.926 434.186 338.877 435.167 338.913 435.981C339.855 456.974 340.796 477.967 341.737 498.959C341.761 499.478 341.793 500.024 342.073 500.46C342.539 501.183 343.504 501.358 344.36 501.44C349.084 501.89 353.845 501.534 358.573 501.128C411.361 496.602 463.623 485.993 516.582 484.45C518.449 484.395 519.018 481.913 519.026 480.045C519.203 440.671 517.827 401.29 514.902 362.024ZM587.499 451.603C586.997 451.237 586.245 451.455 585.824 451.913C585.404 452.37 585.232 452.997 585.073 453.598C584.683 455.078 584.291 456.572 584.233 458.101C584.176 459.63 584.454 461.149 584.731 462.654C585.642 467.606 586.553 472.559 587.464 477.511C587.578 478.134 587.713 478.796 588.154 479.249C588.596 479.703 589.456 479.802 589.814 479.28C593.859 473.363 597.962 467.331 600.078 460.483C600.341 459.631 600.417 458.434 599.583 458.121C595.287 456.504 591.21 454.305 587.499 451.603ZM363.96 439.442C363.652 439.443 363.331 439.447 363.059 439.59C362.44 439.915 362.363 440.76 362.406 441.457C362.755 447.066 365.621 452.166 368.417 457.04C368.859 457.811 369.334 458.615 370.099 459.066C370.864 459.517 372.008 459.455 372.474 458.699C374.355 455.64 376.587 452.799 379.114 450.248C380.159 449.194 379.856 447.421 379.231 446.075C378.607 444.729 377.712 443.402 377.782 441.919C377.823 441.068 378.078 439.975 377.338 439.554C377.078 439.406 376.764 439.403 376.465 439.404C372.297 439.416 368.128 439.429 363.96 439.442ZM422.493 417.722C416.754 409.174 405.036 405.192 395.276 408.472C394.071 408.877 392.769 409.514 392.373 410.722C392.148 411.411 392.267 412.159 392.398 412.871C393.837 420.725 396.439 428.365 400.092 435.465C396.088 435.915 392.084 436.365 388.08 436.815C386.417 437.002 384.691 437.209 383.266 438.086C381.84 438.964 380.807 440.718 381.304 442.317C383.738 450.147 390.84 456.835 399.038 457.004C402.839 457.083 406.549 455.82 409.981 454.187C414.007 452.272 417.828 449.784 420.744 446.413C427.48 438.626 428.232 426.27 422.493 417.722ZM620.745 353.808C620.133 353.557 619.465 353.314 618.825 353.483C618.155 353.659 617.683 354.242 617.262 354.792C599.311 378.222 583.201 403.061 569.128 429.005C567.165 432.625 569.792 436.94 572.306 440.202C573.562 441.831 575.986 443.552 577.356 442.017C579.082 440.082 581.913 438.976 584.357 439.84C586.802 440.704 588.324 443.884 586.994 446.11C586.032 447.72 587.915 449.509 589.56 450.411C592.846 452.211 596.217 453.857 599.658 455.34C600.137 455.546 600.694 455.748 601.159 455.515C601.603 455.293 601.783 454.765 601.921 454.288C603.192 449.917 604.462 445.544 605.732 441.172C606.359 439.015 606.78 436.215 604.93 434.941C603.176 433.733 601.422 432.526 599.668 431.318C598.468 430.492 597.183 429.548 596.813 428.139C596.244 425.979 598.302 423.809 600.517 423.518C602.732 423.227 604.899 424.297 606.734 425.57C609.32 427.363 612.593 424.629 614.528 422.148C611.917 420.585 609.425 418.16 609.322 415.119C609.219 412.077 612.918 409.179 615.379 410.969C617.764 412.704 621.399 412.758 622.965 415.257C624.033 416.962 623.653 419.268 622.566 420.96C621.479 422.653 619.806 423.869 618.172 425.043C620.517 425.276 622.8 426.112 624.74 427.449C625.445 425.395 626.151 423.34 626.856 421.287C627.02 420.809 627.197 420.309 627.573 419.971C628.298 419.321 629.427 419.522 630.355 419.817C632.789 420.59 635.177 421.796 636.784 423.782C638.391 425.767 639.062 428.652 637.939 430.947C636.816 433.241 633.646 434.465 631.498 433.081C629.861 432.027 628.195 429.668 626.607 430.796C630.136 433.544 632.559 437.672 633.239 442.092C644.347 425.172 655.336 408.174 666.204 391.099C667.242 389.469 668.079 386.901 666.39 385.963C650.061 376.905 638.022 360.894 620.745 353.808ZM667.86 394.549C667.354 394.376 666.892 394.883 666.595 395.328C657.081 409.569 647.566 423.811 638.052 438.053C637.284 439.202 636.497 440.398 636.273 441.761C636.05 443.125 636.551 444.711 637.792 445.319C639.848 446.324 641.998 444.211 643.317 442.341C652.157 429.813 660.997 417.284 669.837 404.755C671.806 401.965 670.139 398.15 668.454 395.179C668.308 394.922 668.14 394.645 667.86 394.549ZM400.959 263.033C384.467 274.926 362.953 276.851 342.621 277.133C305.935 277.642 268.995 274.162 232.693 279.484C228.887 280.042 223.929 282.423 225.077 286.095C233.127 311.846 241.228 337.844 243.583 364.721C244.816 378.788 244.604 393.555 251.1 406.093C250.918 398.964 259.825 393.392 266.156 396.674C265.075 388.285 263.995 379.895 262.914 371.505C262.505 368.327 261.231 364.306 258.028 364.193C260.019 361.327 264.116 360.152 267.323 361.527C267.86 361.757 268.401 362.081 268.647 362.611C269.055 363.491 268.496 364.486 268.039 365.342C265.654 369.812 265.881 375.561 268.608 379.829C273.13 376.438 277.794 372.974 283.244 371.475C288.694 369.976 295.189 370.872 298.891 375.144C300.762 377.304 304.57 376.321 306.276 374.029C307.983 371.736 308.232 368.716 308.608 365.882C308.985 363.049 309.696 359.99 311.942 358.223C314.57 356.157 318.587 356.66 321.249 358.682C323.911 360.704 325.425 363.903 326.342 367.118C327.084 369.722 327.818 372.816 330.316 373.86C332.237 374.662 334.437 373.86 336.267 372.867C340.732 370.44 344.469 366.889 348.651 364.002C352.834 361.116 357.816 358.834 362.853 359.507C367.89 360.18 372.621 364.767 371.899 369.797C370.757 377.766 370.897 385.917 372.314 393.841C338.82 397.322 305.201 399.592 271.544 400.643C270.924 400.662 270.761 401.503 270.789 402.123C271.047 407.874 271.306 413.625 271.565 419.376C271.749 423.49 271.947 427.675 273.332 431.553C274.717 435.431 277.494 439.026 281.385 440.373C282.191 440.652 283.107 440.825 283.877 440.457C303.09 431.291 325.065 428.012 346.117 431.17C352.627 432.147 359.042 433.721 365.578 434.501C374.27 435.539 383.13 435.153 391.698 433.366C392.868 433.122 394.365 432.284 393.926 431.172C383.507 404.786 387.214 375.109 392.659 347.268C398.105 319.427 405.168 291.087 400.959 263.033ZM602.447 425.748C601.49 425.464 600.298 425.265 599.623 426.001C599.06 426.616 599.18 427.635 599.666 428.313C600.152 428.991 600.913 429.408 601.648 429.804C602.922 430.491 604.196 431.177 605.471 431.864C606.198 432.255 607.122 432.64 607.795 432.162C608.353 431.764 608.426 430.952 608.27 430.285C607.68 427.77 604.923 426.485 602.447 425.748ZM630.493 422.934C630.254 422.847 629.976 422.764 629.758 422.895C629.675 422.945 629.611 423.02 629.554 423.097C628.744 424.181 628.826 425.758 629.502 426.93C630.178 428.102 631.347 428.917 632.581 429.471C633.004 429.661 633.469 429.828 633.924 429.738C634.315 429.66 634.65 429.396 634.889 429.077C635.772 427.896 635.343 426.118 634.331 425.045C633.319 423.973 631.879 423.437 630.493 422.934ZM422.355 394.689C414.943 390.183 405.851 388.518 397.324 390.107C395.452 390.456 393.499 391.018 392.217 392.426C389.29 395.64 391.49 400.665 391.747 405.004C400.111 403.585 409.044 404.481 416.445 408.626C423.847 412.772 429.476 420.415 430.124 428.873C433.436 428.938 436.745 429.219 440.021 429.715C439.82 424.686 439.399 419.62 437.94 414.803C435.427 406.502 429.766 399.195 422.355 394.689ZM583.589 414.25C584.832 413.536 586.481 413.34 587.665 414.148C589.601 415.468 592.747 415.165 593.754 417.281C594.515 418.88 593.427 420.707 592.386 422.14C591.762 422.998 591.138 423.857 590.515 424.715C590.146 425.223 589.722 425.768 589.109 425.904C588.494 426.04 587.879 425.722 587.328 425.415C584.904 424.064 582.479 422.713 580.055 421.362C579.36 420.974 579.133 420.038 579.323 419.266C579.514 418.494 580.025 417.846 580.523 417.226C581.419 416.108 582.346 414.964 583.589 414.25ZM586.34 417.384C584.697 417.221 582.885 417.738 581.933 419.086C583.584 419.927 585.236 420.767 586.888 421.608C587.238 421.786 587.63 421.97 588.01 421.87C588.294 421.794 588.513 421.573 588.717 421.361C589.476 420.573 590.235 419.785 590.994 418.996C589.508 418.278 587.983 417.547 586.34 417.384ZM632.666 405.643C634.076 404.577 636.073 405.469 637.593 406.372C639.203 407.331 640.814 408.288 642.425 409.246C643.195 409.705 643.984 410.179 644.536 410.884C645.088 411.59 645.359 412.589 644.973 413.398C644.503 414.38 643.274 414.76 642.647 415.649C641.827 416.81 642.168 418.634 641.071 419.538C639.959 420.454 638.305 419.72 637.075 418.968C634.806 417.582 632.537 416.195 630.268 414.808C629.581 414.388 628.857 413.927 628.52 413.197C628.182 412.466 628.457 411.4 629.24 411.214C631.448 410.689 630.855 407.012 632.666 405.643ZM614 412.615C612.284 412.44 611.294 414.85 612.077 416.386C612.861 417.923 614.591 418.685 616.192 419.327C617.323 419.78 618.694 420.206 619.679 419.491C621.094 418.463 620.33 416.151 619.064 414.945C617.694 413.64 615.882 412.807 614 412.615ZM635.67 409.522C635.235 409.277 634.629 409.053 634.292 409.421C633.206 410.607 633.048 412.541 633.928 413.887C634.808 415.233 636.643 415.865 638.165 415.345C639.14 415.012 639.924 414.289 640.676 413.585C641.22 413.075 640.491 412.236 639.841 411.87C638.451 411.087 637.06 410.305 635.67 409.522ZM592.588 400.13C592.683 398.87 594.32 398.248 595.522 398.639C596.723 399.031 597.589 400.049 598.498 400.926C599.407 401.804 600.572 402.624 601.823 402.452C603.412 402.233 604.741 403.942 604.714 405.545C604.687 407.149 603.728 408.574 602.733 409.832C601.739 411.091 600.641 412.351 600.247 413.906C600.096 414.503 599.428 414.851 598.813 414.838C598.197 414.825 597.624 414.536 597.084 414.241C594.075 412.594 591.289 410.541 588.822 408.158C588.275 407.628 587.746 406.694 588.331 406.206C590.287 404.579 592.396 402.668 592.588 400.13ZM619.917 395.182C620.808 395.168 621.61 395.686 622.35 396.184C624.634 397.724 626.919 399.263 629.204 400.803C629.594 401.066 629.993 401.337 630.264 401.722C631.043 402.831 630.483 404.348 629.906 405.574C629.278 406.908 628.65 408.242 628.023 409.577C627.775 410.102 627.496 410.662 626.985 410.94C626.116 411.412 625.065 410.854 624.237 410.311C620.741 408.017 617.244 405.723 613.748 403.429C612.741 402.769 613.346 401.202 614.083 400.249C615.051 398.998 616.102 397.81 617.226 396.697C617.976 395.953 618.861 395.199 619.917 395.182ZM596.939 403.255C595.825 402.856 594.467 402.917 593.594 403.714C592.72 404.512 592.642 406.135 593.621 406.798C594.906 407.667 596.19 408.536 597.475 409.405C597.711 409.564 597.975 409.731 598.258 409.695C598.524 409.66 598.73 409.455 598.915 409.261C599.456 408.695 600.011 408.107 600.283 407.373C600.556 406.639 600.473 405.714 599.878 405.205C598.978 404.438 598.052 403.655 596.939 403.255ZM620.606 399.861C619.758 399.505 618.735 399.395 617.948 399.871C617.162 400.348 616.812 401.55 617.431 402.23C619.292 404.275 621.716 405.804 624.364 406.602C624.797 406.732 625.257 406.844 625.697 406.743C627.008 406.441 627.18 404.48 626.349 403.422C625.517 402.365 624.159 401.91 622.99 401.245C622.191 400.789 621.455 400.217 620.606 399.861ZM617.095 361.276C618.226 361.367 619.213 362.047 620.139 362.704C632.089 371.187 644.039 379.671 655.989 388.154C656.687 388.649 657.439 389.223 657.61 390.062C657.75 390.746 657.463 391.438 657.175 392.075C655.629 395.486 653.85 398.793 651.856 401.964C651.405 402.682 650.889 403.438 650.094 403.734C649.345 404.013 648.509 403.822 647.747 403.582C641.885 401.74 637.273 397.31 632.598 393.322C625.77 387.497 618.36 382.356 610.514 377.998C609.715 377.555 608.879 377.088 608.39 376.317C607.901 375.546 607.915 374.372 608.669 373.857C612.187 371.455 614.469 367.332 614.637 363.076C614.682 361.941 615.963 361.185 617.095 361.276ZM601.63 385.119C602.331 384.966 603.045 385.267 603.69 385.58C607.213 387.291 610.439 389.61 613.184 392.403C613.844 393.075 613.927 394.157 613.633 395.052C613.339 395.947 612.733 396.701 612.139 397.432C611.184 398.608 610.167 399.831 608.759 400.389C607.239 400.991 605.471 400.701 604.031 399.926C602.592 399.151 601.437 397.938 600.419 396.66C599.091 394.991 597.902 392.991 598.108 390.869C598.244 389.478 598.963 388.221 599.667 387.014C600.139 386.204 600.713 385.318 601.63 385.119ZM614.227 373.543C613.805 374.287 613.441 375.362 614.123 375.876C623.875 383.219 633.627 390.561 643.379 397.904C644.981 399.11 647.471 400.241 648.732 398.682C650.181 396.892 651.535 395.024 652.784 393.089C653.126 392.56 653.475 391.955 653.352 391.337C653.239 390.773 652.764 390.364 652.317 390.001C641.581 381.296 630.213 373.369 618.333 366.303C616.964 368.717 615.595 371.13 614.227 373.543ZM603.382 390.066C602.464 390.072 601.53 391.018 601.905 391.855C601.849 392.26 603.613 395.493 605.828 396.355C608.043 397.216 609.461 396.533 609.52 395.08C609.556 394.164 608.757 393.457 608.029 392.898C607.296 392.334 606.562 391.77 605.828 391.205C605.101 390.646 604.299 390.06 603.382 390.066ZM317.999 362.246C317.177 361.997 316.344 362.587 315.766 363.221C313.218 366.015 312.677 370.023 311.586 373.644C310.495 377.265 308.154 381.132 304.398 381.567C299.111 382.178 295.561 375.786 290.352 374.699C286.899 373.978 283.46 375.723 280.363 377.412C277.388 379.034 274.357 380.698 272.037 383.169C269.717 385.641 268.185 389.102 268.856 392.424C269.155 393.906 269.981 395.389 271.37 395.984C272.106 396.299 272.926 396.337 273.726 396.365C286.388 396.81 299.053 395.837 311.686 394.865C329.724 393.476 347.762 392.087 365.8 390.699C367.998 385.563 368.576 379.748 367.433 374.28C366.685 370.707 365.237 366.937 366.593 363.548C358.491 363.771 350.497 366.868 344.359 372.162C341.287 374.811 338.318 378.16 334.285 378.602C330.543 379.012 326.965 376.668 324.665 373.688C322.365 370.707 321.035 367.116 319.361 363.744C319.052 363.121 318.665 362.447 317.999 362.246ZM154.177 204.753C155.318 204.714 156.569 205.449 156.694 206.583C158.735 225.035 164.416 243.077 173.315 259.37C178.824 269.457 185.525 278.837 192.209 288.188C196.86 294.695 201.834 301.476 209.091 304.839C211.02 305.734 210.75 308.515 210.232 310.578C207.994 319.493 206.95 328.708 207.136 337.899C207.153 338.767 207.176 339.667 206.835 340.465C205.677 343.176 201.709 342.725 198.978 341.616C182.076 334.755 169.1 320.957 156.979 307.327C141.241 289.629 125.737 271.154 116.44 249.372C115.808 247.892 115.194 246.333 115.3 244.727C115.408 243.09 116.249 241.602 117.102 240.201C125.53 226.358 137.255 214.538 151.029 205.997C152 205.396 153.036 204.793 154.177 204.753ZM363.074 299.27C364.102 298.342 365.577 297.578 366.829 298.17C368.068 298.756 368.416 300.324 368.615 301.68C369.923 310.576 371.231 319.472 372.538 328.369C372.588 328.705 372.632 329.074 372.456 329.366C372.224 329.752 371.713 329.844 371.266 329.897C362.006 330.988 352.691 331.616 343.368 331.779C338 331.872 332.629 331.811 327.264 331.996C303.366 332.823 279.924 338.514 256.171 341.268C254.456 341.467 252.432 341.534 251.33 340.205C249.66 338.192 251.636 335.273 253.513 333.45C258.165 328.931 262.817 324.413 267.47 319.895C269.634 317.793 272.262 315.529 275.249 315.953C277.713 316.302 279.499 318.371 281.428 319.944C283.356 321.517 286.299 322.634 288.211 321.041C295.656 314.842 303.453 309.063 311.551 303.744C314.349 301.905 317.763 300.054 320.874 301.29C328.581 304.354 336.32 307.337 344.089 310.241C346.491 311.139 349.062 312.042 351.567 311.492C357.157 310.263 358.827 303.106 363.074 299.27ZM201.644 331.723C201.217 331.374 200.599 331.433 200.056 331.526C198.298 331.827 196.568 332.29 194.896 332.907C194.635 333.003 194.355 333.12 194.22 333.363C193.948 333.853 194.436 334.407 194.88 334.749C197.22 336.555 199.696 338.184 202.281 339.618C202.237 337.517 202.194 335.416 202.149 333.316C202.137 332.74 202.089 332.088 201.644 331.723ZM320.219 305.092C318.143 304.286 315.885 305.543 314.027 306.772C304.982 312.755 296.246 319.207 287.869 326.095C286.162 327.498 283.548 326.508 281.859 325.082C280.171 323.657 278.68 321.773 276.527 321.276C273.508 320.578 270.696 322.877 268.447 325.009C264.352 328.892 260.228 332.808 256.973 337.418C264.588 337.393 272.097 335.792 279.585 334.402C307.35 329.248 335.639 326.92 363.873 327.465C365.599 327.499 367.05 325.996 367.544 324.341C368.038 322.687 367.796 320.913 367.55 319.204C367.015 315.495 366.48 311.785 365.944 308.075C365.818 307.196 365.661 306.255 365.045 305.616C364.429 304.976 363.184 304.887 362.756 305.665C360.556 309.666 357.944 314.013 353.575 315.338C349.817 316.479 345.813 315.038 342.152 313.616C334.841 310.775 327.53 307.933 320.219 305.092ZM544.132 311.984C545.761 311.335 547.617 311.667 549.273 312.245C552.306 313.303 555.056 315.165 557.165 317.589C558.978 319.673 560.36 322.377 559.979 325.113C559.839 326.117 559.468 327.075 559.046 327.996C557.446 331.487 554.692 334.832 550.912 335.508C548.93 335.863 546.885 335.437 544.979 334.788C542.773 334.038 540.671 332.986 538.748 331.67C537.728 330.972 536.715 330.144 536.268 328.992C535.96 328.198 535.95 327.323 535.962 326.472C535.991 324.366 536.13 322.224 536.864 320.249C537.793 317.751 539.611 315.689 541.539 313.849C542.314 313.109 543.137 312.38 544.132 311.984ZM550.172 315.237C548.966 314.802 547.629 314.681 546.394 315.023C545.727 315.207 545.102 315.521 544.519 315.892C542.021 317.48 540.269 320.19 539.843 323.119C539.417 326.047 540.326 329.144 542.268 331.377C543.511 332.808 545.541 333.421 547.421 333.184C549.301 332.946 551.027 331.936 552.374 330.603C554.567 328.434 555.842 325.289 555.495 322.224C555.148 319.159 553.073 316.283 550.172 315.237ZM144.188 221.393C143.495 220.282 142.5 219.02 141.203 219.204C140.712 219.273 140.278 219.551 139.868 219.83C135.634 222.719 132.055 226.562 129.475 230.99C128.873 232.022 128.311 233.257 128.742 234.371C130.684 239.385 130.613 244.92 130.514 250.295C130.438 254.431 129.995 259.259 126.506 261.481C133.396 270.333 140.285 279.186 147.175 288.038C158.887 303.087 170.808 318.341 186.19 329.612C187.025 330.223 188.024 330.854 189.023 330.587C193.272 329.454 197.52 328.321 201.768 327.188C202.213 327.069 202.676 326.941 203.019 326.633C203.48 326.219 203.629 325.568 203.755 324.961C204.369 321.995 204.791 318.402 202.516 316.402C197.46 311.958 199.98 302.97 195.668 297.802C179.977 279.002 166.597 257.871 159.471 234.443C158.898 232.559 157.808 230.245 155.844 230.382C150.685 230.743 146.924 225.781 144.188 221.393ZM549.502 319.385C551.064 319.407 552.826 319.73 553.683 321.037C554.45 322.206 554.21 323.769 553.701 325.072C553.031 326.789 551.896 328.381 550.295 329.294C548.694 330.208 546.591 330.341 545.03 329.36C543.47 328.378 542.686 326.194 543.523 324.551C543.901 323.808 544.549 323.23 544.94 322.493C545.247 321.913 545.388 321.247 545.767 320.711C546.561 319.587 548.125 319.366 549.502 319.385ZM550.197 321.78C548.061 321.753 546.056 323.544 545.845 325.67C545.758 326.539 546.127 327.619 546.992 327.739C547.64 327.828 548.209 327.328 548.645 326.84C549.566 325.807 550.358 324.658 550.995 323.429C551.209 323.017 551.397 322.487 551.116 322.118C550.912 321.848 550.536 321.784 550.197 321.78ZM203.763 306.649C203.353 306.016 202.385 305.467 201.939 306.074C201.769 306.303 201.769 306.613 201.793 306.898C201.951 308.799 202.885 310.625 204.333 311.867C204.968 310.167 204.749 308.172 203.763 306.649ZM540.879 165.312C541.251 163.897 543.037 163.26 544.452 163.63C545.867 164.001 546.974 165.078 547.99 166.13C559.784 178.34 569.093 192.94 575.187 208.784C575.605 209.872 576.012 211.081 575.612 212.176C572.538 220.61 566.604 227.642 560.787 234.479C557.07 238.848 553.353 243.217 549.636 247.585C546.087 251.756 542.538 255.928 538.869 259.994C520.191 280.695 498.121 298.796 472.56 309.934C471.595 310.354 470.56 310.774 469.522 310.606C468.483 310.438 467.509 309.429 467.781 308.413C470.942 296.599 474.122 284.248 471.586 272.286C470.974 269.4 470.292 265.767 472.677 264.031C491.982 249.973 505.881 229.878 519.201 210.057C522.551 205.073 525.892 200.076 528.856 194.854C534.118 185.582 538.171 175.624 540.879 165.312ZM483.997 295.139C481.831 293.495 478.803 293.063 476.264 294.035C475.795 294.214 475.328 294.448 475.005 294.832C474.626 295.283 474.488 295.883 474.366 296.458C473.753 299.367 473.268 302.303 472.916 305.255C474.027 305.837 475.373 305.284 476.484 304.704C479.406 303.178 482.22 301.447 484.899 299.527C485.607 299.019 485.818 298.006 485.567 297.172C485.317 296.338 484.691 295.666 483.997 295.139ZM297.703 297.781C298.513 297.689 299.376 297.606 300.105 297.971C300.833 298.336 301.303 299.334 300.827 299.996C300.476 300.483 299.804 300.582 299.206 300.64L253.406 305.084C252.454 305.177 251.099 304.903 251.183 303.95C251.248 303.205 252.183 302.936 252.926 302.852C267.852 301.162 282.777 299.471 297.703 297.781ZM272.003 292.397C273.451 292.354 275.383 292.733 275.485 294.178C267.834 295.268 260.183 296.357 252.531 297.447C251.295 297.623 249.908 297.763 248.913 297.008C247.918 296.253 248.018 294.253 249.258 294.103C256.808 293.19 264.401 292.62 272.003 292.397ZM557.111 181.141C551.653 183.51 545.234 183.567 539.735 181.292C538.537 180.797 537.432 182.137 536.821 183.282C523.943 207.419 511.219 232.283 491.59 251.34C489.831 253.048 487.864 255.112 488.189 257.542C489.228 265.334 485.068 273.562 478.178 277.345C475.049 279.063 475.087 283.493 475.545 287.033C475.728 288.449 476.263 290.225 477.687 290.345C481.863 290.697 485.871 292.753 488.593 295.94C489.452 296.944 491.079 296.316 492.198 295.613C520.37 277.902 542.015 251.743 563.149 226.04C563.879 225.154 564.654 224.037 564.274 222.954C561.076 213.843 561.589 203.489 565.671 194.74C563.262 189.947 560.391 185.386 557.111 181.141ZM598.286 255.434C599.254 255.458 600.25 255.505 601.131 255.907C603.582 257.024 604.102 260.225 604.185 262.917C604.26 265.367 604.247 267.848 603.651 270.225C603.056 272.602 601.825 274.893 599.856 276.352C598.97 277.008 597.944 277.485 596.857 277.667C595.179 277.949 593.461 277.517 591.865 276.923C589.739 276.132 587.724 275.045 585.894 273.704C585 273.049 584.076 272.192 584.047 271.084C583.98 268.53 584.267 265.966 584.895 263.489C585.296 261.905 585.855 260.324 586.87 259.045C589.447 255.8 594.144 255.333 598.286 255.434ZM598.81 257.849C596.835 257.313 594.736 257.243 592.731 257.644C591.734 257.843 590.715 258.185 590.016 258.922C589.635 259.324 589.37 259.82 589.111 260.31C588.465 261.531 587.82 262.752 587.174 263.973C586.833 264.617 586.49 265.267 586.289 265.968C585.69 268.064 586.482 270.392 587.945 272.007C589.409 273.623 591.457 274.605 593.552 275.206C596.86 276.156 600.379 273.597 601.633 270.392C602.886 267.186 602.423 263.586 601.733 260.213C601.469 258.919 600.085 258.195 598.81 257.849ZM591.249 264.358C593.166 262.763 595.507 261.062 597.922 261.685C599.823 262.175 601.132 264.099 601.297 266.055C601.462 268.011 600.652 269.948 599.48 271.523C599.043 272.109 598.541 272.668 597.897 273.011C596.631 273.684 595.021 273.384 593.815 272.61C592.608 271.836 591.724 270.659 590.898 269.488C590.175 268.465 589.442 267.218 589.85 266.035C590.09 265.337 590.682 264.83 591.249 264.358ZM483.37 259.912C482.948 259.864 482.545 260.087 482.198 260.333C480.887 261.266 479.931 262.606 479.001 263.919C478.157 265.112 477.313 266.305 476.469 267.497C475.92 268.273 475.345 269.133 475.408 270.081C475.494 271.358 476.82 272.314 478.099 272.278C479.377 272.242 480.528 271.414 481.275 270.376C482.023 269.338 482.433 268.1 482.832 266.885C483.271 265.548 483.711 264.21 484.15 262.872C484.518 261.754 484.54 260.043 483.37 259.912ZM598.954 265.351C598.075 264.386 596.653 263.953 595.386 264.264C594.118 264.575 593.058 265.618 592.726 266.88C592.41 268.079 592.768 269.446 593.671 270.296C594.273 270.864 595.123 271.193 595.941 271.071C597.094 270.898 597.965 269.882 598.368 268.788C598.771 267.695 598.809 266.507 598.954 265.351ZM125.981 237.315C125.649 236.995 125.098 237.216 124.723 237.482C121.948 239.45 120.81 243.127 121.019 246.523C121.227 249.919 122.569 253.128 123.893 256.262C124.043 256.619 124.299 257.041 124.684 256.996C126.521 255.371 126.708 252.619 126.764 250.167C126.792 248.902 126.82 247.636 126.849 246.371C126.913 243.499 126.973 240.58 126.219 237.808C126.17 237.63 126.114 237.443 125.981 237.315ZM153.026 210.137C152.476 209.654 151.621 209.908 150.959 210.22C149.151 211.073 147.467 212.19 145.978 213.523C145.374 214.063 144.768 214.708 144.69 215.514C144.619 216.255 145.013 216.955 145.419 217.579C147.296 220.464 149.734 222.984 152.556 224.955C153.2 225.406 153.919 225.843 154.704 225.821C155.49 225.798 156.297 225.105 156.144 224.334C155.275 219.989 154.406 215.644 153.537 211.299C153.453 210.876 153.35 210.422 153.026 210.137ZM567.199 197.659C565.149 201.737 565.474 206.555 565.847 211.105C566.025 213.28 566.203 215.455 566.381 217.63C566.44 218.348 566.83 219.316 567.522 219.118C568.327 216.864 570.497 215.35 571.488 213.172C573.054 209.731 571.317 205.764 569.605 202.393C568.803 200.815 568.001 199.237 567.199 197.659ZM543.589 166.063C541.493 167.91 542.244 171.376 541.02 173.887C540.548 174.853 539.772 175.698 539.587 176.757C539.402 177.816 540.298 179.144 541.315 178.794C542.577 178.359 543.933 179.016 545.266 179.102C547.949 179.275 550.175 177.173 552.028 175.226C550.114 171.483 547.162 168.278 543.589 166.063Z" fill="#00160A"/>
</svg>
